<?xml version="1.0" encoding="UTF-8" standalone="no"?>
<!-- Created with Inkscape (http://www.inkscape.org/) -->

<svg
   width="720mm"
   height="720mm"
   viewBox="0 0 720 720"
   version="1.1"
   id="svg1"
   inkscape:version="1.3.2 (091e20e, 2023-11-25, custom)"
   sodipodi:docname="net.svg"
   xmlns:inkscape="http://www.inkscape.org/namespaces/inkscape"
   xmlns:sodipodi="http://sodipodi.sourceforge.net/DTD/sodipodi-0.dtd"
   xmlns="http://www.w3.org/2000/svg"
   xmlns:svg="http://www.w3.org/2000/svg">
  <sodipodi:namedview
     id="namedview1"
     pagecolor="#505050"
     bordercolor="#eeeeee"
     borderopacity="1"
     inkscape:showpageshadow="0"
     inkscape:pageopacity="0"
     inkscape:pagecheckerboard="0"
     inkscape:deskcolor="#505050"
     inkscape:document-units="mm"
     inkscape:zoom="1.0877315"
     inkscape:cx="1591.8451"
     inkscape:cy="986.91637"
     inkscape:window-width="2560"
     inkscape:window-height="1417"
     inkscape:window-x="2552"
     inkscape:window-y="-8"
     inkscape:window-maximized="1"
     inkscape:current-layer="layer1" />
  <defs
     id="defs1" />
  <g
     inkscape:label="Layer 1"
     inkscape:groupmode="layer"
     id="layer1">
    <path
       style="fill:none;stroke:#ffffff;stroke-width:6.1;stroke-dasharray:none"
       d="M 343.30989,617.1322 V 103.19937 c 0,0 211.49253,12.0298 211.49253,137.93303 0,125.90323 -209.42854,125.56935 -209.42854,125.56935 0,0 158.23904,-15.8239 160.30302,-127.96721 2.06399,-112.14332 -161.39403,-133.749 -161.39403,-133.749"
       id="path1"
       sodipodi:nodetypes="ccscsc" />
    <path
       style="fill:none;stroke:#ffffff;stroke-width:6.1;stroke-dasharray:none"
       d="m 347.24351,108.75222 c 0,0 100.64175,62.55873 101.32974,135.48628 0.688,72.92757 -101.976,119.58607 -101.976,119.58607 0,0 46.93634,-40.46655 45.56035,-120.27406 C 390.78161,163.743 347.24351,108.75222 347.24351,108.75222 Z"
       id="path2"
       sodipodi:nodetypes="cscsc" />
    <path
       style="fill:none;stroke:#ffffff;stroke-width:6.1;stroke-dasharray:none"
       d="m 343.99788,242.17451 209.15072,-2.06398 c 0,0 -11.69592,-56.41565 -100.44737,-59.16764 -88.75146,-2.75198 -108.70335,61.23162 -108.70335,61.23162 z"
       id="path3" />
    <path
       style="fill:none;stroke:#ffffff;stroke-width:6.1;stroke-dasharray:none"
       d="m 554.8686,241.14252 c 0,0 -10.31994,46.0957 -102.16737,46.0957 -91.84746,0 -109.04733,-42.65572 -109.04733,-42.65572 0,0 -7.20194,90.41397 78.08753,90.12745 87.74452,-0.29477 133.12717,-93.56743 133.12717,-93.56743 z"
       id="path5"
       sodipodi:nodetypes="cscsc" />
    <path
       style="fill:none;stroke:#ffffff;stroke-width:6.1;stroke-dasharray:none"
       d="m 344.3419,244.2385 c 0,-2.40798 4.04022,-112.80209 82.90348,-113.5193 83.94962,-0.76347 128.31122,108.70333 128.31122,108.70333"
       id="path6"
       sodipodi:nodetypes="csc" />
  </g>
</svg>
