<?xml version="1.0" encoding="UTF-8" standalone="no"?>
<!-- Created with Inkscape (http://www.inkscape.org/) -->

<svg
   width="1920mm"
   height="1080mm"
   viewBox="0 0 1920 1080"
   version="1.1"
   id="svg1"
   inkscape:version="1.3.2 (091e20e, 2023-11-25, custom)"
   sodipodi:docname="scatter-light.svg"
   inkscape:export-filename="scatter-light.png"
   inkscape:export-xdpi="96"
   inkscape:export-ydpi="96"
   xmlns:inkscape="http://www.inkscape.org/namespaces/inkscape"
   xmlns:sodipodi="http://sodipodi.sourceforge.net/DTD/sodipodi-0.dtd"
   xmlns:xlink="http://www.w3.org/1999/xlink"
   xmlns="http://www.w3.org/2000/svg"
   xmlns:svg="http://www.w3.org/2000/svg">
  <sodipodi:namedview
     id="namedview1"
     pagecolor="#505050"
     bordercolor="#eeeeee"
     borderopacity="1"
     inkscape:showpageshadow="0"
     inkscape:pageopacity="0"
     inkscape:pagecheckerboard="0"
     inkscape:deskcolor="#505050"
     inkscape:document-units="mm"
     inkscape:zoom="0.19228558"
     inkscape:cx="3739.23"
     inkscape:cy="1921.621"
     inkscape:window-width="2560"
     inkscape:window-height="1417"
     inkscape:window-x="2552"
     inkscape:window-y="-8"
     inkscape:window-maximized="1"
     inkscape:current-layer="layer1" />
  <defs
     id="defs1">
    <linearGradient
       id="linearGradient3"
       inkscape:collect="always">
      <stop
         style="stop-color:#000000;stop-opacity:1;"
         offset="0"
         id="stop3" />
      <stop
         style="stop-color:#1b248f;stop-opacity:1"
         offset="1"
         id="stop4" />
    </linearGradient>
    <linearGradient
       inkscape:collect="always"
       xlink:href="#linearGradient3"
       id="linearGradient4"
       x1="2091.5071"
       y1="595.80432"
       x2="103.19937"
       y2="-207.77473"
       gradientUnits="userSpaceOnUse" />
  </defs>
  <g
     inkscape:label="Layer 1"
     inkscape:groupmode="layer"
     id="layer1">
    <path
       style="fill:url(#linearGradient4);stroke:#e8eee6;stroke-width:9.0326;fill-opacity:1"
       d="m 1936.9221,557.29514 h 4.2835 l -21.4172,29.98402 c 0,0 -19.9894,-9.99468 -55.6846,-57.11241 -35.6953,-47.11771 -55.6845,58.54021 -62.8236,59.96802 -7.1391,1.42781 -48.5455,-65.67923 -48.5455,-65.67923 l -77.1017,57.11237 c 0,0 -21.4171,-38.55087 -39.9787,-74.24609 -18.5615,-35.69525 -51.4011,-24.27278 -57.1124,-22.84497 -5.7112,1.42782 -48.5455,61.39581 -84.2408,87.09639 -35.6952,25.70058 -91.3797,11.42248 -91.3797,11.42248 0,0 -94.2355,-91.37982 -101.3745,-101.37448 -7.1391,-9.99467 -134.2142,89.952 -134.2142,89.952 L 1068.8139,425.93667 924.60522,553.01171 836.08102,425.93667 c 0,0 -142.78095,101.37449 -167.05372,108.51351 -24.27277,7.13905 -85.66858,-58.54019 -85.66858,-58.54019 0,0 -265.57256,45.68993 -274.13942,45.68993 -8.56686,0 -141.35315,-42.8343 -141.35315,-42.8343 l -188.470853,41.40649 -2.787154,-637.13139 2052.979457,16.5119 z"
       id="path1" />
  </g>
</svg>
